<svg width="44" height="28" viewBox="0 0 44 28" fill="none" xmlns="http://www.w3.org/2000/svg">
<path fill-rule="evenodd" clip-rule="evenodd" d="M6.00574e-09 3.875C6.00574e-09 2.97989 0.434597 2.12145 1.20818 1.48851C1.98177 0.855579 3.03098 0.5 4.125 0.5L28.875 0.5C29.969 0.5 31.0182 0.855579 31.7918 1.48851C32.5654 2.12145 33 2.97989 33 3.875V7.25H35.805C36.423 7.25045 37.033 7.36452 37.59 7.58378C38.1469 7.80304 38.6364 8.12188 39.0225 8.51675L43.0952 12.6793C43.6812 13.2782 44.0004 14.0226 44 14.7897V19.625C44 20.5201 43.5654 21.3786 42.7918 22.0115C42.0182 22.6444 40.969 23 39.875 23H38.5C38.5 24.1935 37.9205 25.3381 36.8891 26.182C35.8576 27.0259 34.4587 27.5 33 27.5C31.5413 27.5 30.1424 27.0259 29.1109 26.182C28.0795 25.3381 27.5 24.1935 27.5 23H13.75C13.7516 23.5998 13.6066 24.1938 13.3235 24.7471C13.0405 25.3004 12.6251 25.8019 12.1018 26.2219C11.5785 26.642 10.9578 26.9722 10.2763 27.1932C9.59471 27.4142 8.86605 27.5214 8.13311 27.5087C7.40016 27.4959 6.67773 27.3634 6.00828 27.119C5.33883 26.8745 4.73588 26.523 4.23486 26.0851C3.73384 25.6472 3.34487 25.1318 3.09082 24.5691C2.83677 24.0065 2.72276 23.408 2.7555 22.8088C1.94988 22.5768 1.25214 22.1459 0.758572 21.5756C0.265006 21.0053 -4.60679e-05 20.3238 6.00574e-09 19.625L6.00574e-09 3.875ZM3.5585 20.651C4.0557 19.985 4.75616 19.4363 5.59102 19.0588C6.42588 18.6814 7.36642 18.4881 8.3202 18.4981C9.27398 18.5081 10.2082 18.721 11.0309 19.1158C11.8537 19.5106 12.5368 20.0738 13.013 20.75H28.237C28.7207 20.0666 29.4148 19.4988 30.25 19.103V3.875C30.25 3.57663 30.1051 3.29048 29.8473 3.0795C29.5894 2.86853 29.2397 2.75 28.875 2.75H4.125C3.76033 2.75 3.41059 2.86853 3.15273 3.0795C2.89487 3.29048 2.75 3.57663 2.75 3.875V19.625C2.74978 19.8415 2.82595 20.0535 2.96937 20.2355C3.11278 20.4175 3.31734 20.5618 3.5585 20.651ZM33 18.5C33.9654 18.5 34.9138 18.708 35.7499 19.1029C36.586 19.4979 37.2803 20.0659 37.763 20.75H39.875C40.2397 20.75 40.5894 20.6315 40.8473 20.4205C41.1051 20.2095 41.25 19.9234 41.25 19.625V14.7875C41.2494 14.5322 41.1428 14.2846 40.9475 14.0855L36.8775 9.923C36.7489 9.79124 36.5858 9.68482 36.4001 9.6116C36.2145 9.53838 36.0111 9.50024 35.805 9.5H33V18.5ZM8.25 20.75C7.52065 20.75 6.82118 20.9871 6.30546 21.409C5.78973 21.831 5.5 22.4033 5.5 23C5.5 23.5967 5.78973 24.169 6.30546 24.591C6.82118 25.0129 7.52065 25.25 8.25 25.25C8.97935 25.25 9.67882 25.0129 10.1945 24.591C10.7103 24.169 11 23.5967 11 23C11 22.4033 10.7103 21.831 10.1945 21.409C9.67882 20.9871 8.97935 20.75 8.25 20.75ZM33 20.75C32.2707 20.75 31.5712 20.9871 31.0555 21.409C30.5397 21.831 30.25 22.4033 30.25 23C30.25 23.5967 30.5397 24.169 31.0555 24.591C31.5712 25.0129 32.2707 25.25 33 25.25C33.7293 25.25 34.4288 25.0129 34.9445 24.591C35.4603 24.169 35.75 23.5967 35.75 23C35.75 22.4033 35.4603 21.831 34.9445 21.409C34.4288 20.9871 33.7293 20.75 33 20.75Z" fill="white"/>
</svg>
