<svg width="22" height="27" viewBox="0 0 22 27" fill="none" xmlns="http://www.w3.org/2000/svg">
<path d="M11 0C16.775 0 22 4.347 22 11.07C22 15.552 18.3288 20.8575 11 27C3.67125 20.8575 0 15.552 0 11.07C0 4.347 5.225 0 11 0ZM19.25 11.07C19.25 6.1695 15.6062 2.7 11 2.7C6.39375 2.7 2.75 6.1695 2.75 11.07C2.75 14.229 5.43125 18.414 11 23.409C16.5688 18.414 19.25 14.229 19.25 11.07ZM11 13.5C9.4875 13.5 8.25 12.285 8.25 10.8C8.25 9.315 9.4875 8.1 11 8.1C12.5125 8.1 13.75 9.315 13.75 10.8C13.75 12.285 12.5125 13.5 11 13.5Z" fill="#5191F1"/>
</svg>
